<?xml version="1.0" encoding="iso-8859-1"?>
<!-- Uploaded to: SVG Repo, www.svgrepo.com, Generator: SVG Repo Mixer Tools -->
<!DOCTYPE svg PUBLIC "-//W3C//DTD SVG 1.1//EN" "http://www.w3.org/Graphics/SVG/1.1/DTD/svg11.dtd">
<svg fill="#000000" version="1.1" id="Capa_1" xmlns="http://www.w3.org/2000/svg" xmlns:xlink="http://www.w3.org/1999/xlink" 
	 width="800px" height="800px" viewBox="0 0 51.607 51.607"
	 xml:space="preserve">
<g>
	<path d="M51.601,50.239v-17.73c0-0.646-0.522-1.168-1.168-1.168c-0.644,0-1.168,0.522-1.168,1.168V47.42L38.689,36.845
		c7.599-8.673,7.29-21.899-0.979-30.17C33.536,2.5,27.986,0.202,22.088,0.202c-5.901,0-11.451,2.298-15.625,6.473
		c-8.615,8.614-8.618,22.634,0,31.251c4.175,4.175,9.725,6.472,15.625,6.472c5.609,0,10.883-2.097,14.978-5.883L47.62,49.066
		l-14.916,0.003c-0.644,0-1.168,0.522-1.168,1.168s0.524,1.168,1.168,1.168l18.903-0.003L51.601,50.239L51.601,50.239z
		 M22.085,42.063c-5.278,0-10.242-2.055-13.974-5.789c-7.706-7.705-7.706-20.243,0-27.946c3.729-3.733,8.693-5.788,13.974-5.788
		c5.279,0,10.24,2.055,13.974,5.788c7.354,7.355,7.671,19.109,0.979,26.865L23.981,22.135c-0.457-0.456-1.198-0.456-1.652,0
		c-0.456,0.455-0.456,1.195,0,1.652l13.08,13.081C31.758,40.212,27.067,42.063,22.085,42.063z"/>
</g>
</svg>