<?xml version="1.0" encoding="iso-8859-1"?>
<!-- Uploaded to: SVG Repo, www.svgrepo.com, Generator: SVG Repo Mixer Tools -->
<!DOCTYPE svg PUBLIC "-//W3C//DTD SVG 1.1//EN" "http://www.w3.org/Graphics/SVG/1.1/DTD/svg11.dtd">
<svg fill="#000000" version="1.1" id="Capa_1" xmlns="http://www.w3.org/2000/svg" xmlns:xlink="http://www.w3.org/1999/xlink" 
	 width="800px" height="800px" viewBox="0 0 489.967 489.967"
	 xml:space="preserve">
<g>
	<g>
		<path d="M258.133,67.693c-27.488,0-53.779,7.805-76.338,22.363l-37.972-38.043l21.104-21.133L49.321,0L80.36,115.561
			l21.064-21.092l56.873,56.977l42.443,0.02c15.332-15.33,35.713-23.771,57.394-23.771c44.752,0,81.159,36.408,81.159,81.16
			c0,44.752-36.407,81.161-81.159,81.161l-30,30.077v169.874h60v-143.16c63.475-13.789,111.159-70.406,111.159-137.952
			C399.293,131.017,335.969,67.693,258.133,67.693z"/>
		<path d="M288.208,55.611V26.318h-60v29.246c9.789-1.895,19.802-2.871,29.925-2.871C268.418,52.693,278.471,53.703,288.208,55.611z
			"/>
		<path d="M178.131,208.756c0-15.521,4.453-30.014,12.127-42.297l-38.186-0.018l-20.283-20.32
			c-5.082,10.237-8.969,21.173-11.451,32.635h-44.57v60h44.57c10.547,48.696,46.234,88.016,92.795,103.706v-28.573l27.055-27.125
			C204.686,278.564,178.131,246.714,178.131,208.756z"/>
		<path d="M411.372,178.756c1.91,9.743,2.922,19.803,2.922,30.097c0,10.079-0.987,20.095-2.913,29.903h29.266v-60H411.372z"/>
	</g>
</g>
</svg>